<mxfile host="Electron" agent="Mozilla/5.0 (Windows NT 10.0; Win64; x64) AppleWebKit/537.36 (KHTML, like Gecko) draw.io/26.0.16 Chrome/132.0.6834.196 Electron/34.2.0 Safari/537.36" version="26.0.16">
  <diagram name="Page-1" id="YPAZWXuc08tB3igoBrNE">
    <mxGraphModel dx="1240" dy="1188" grid="1" gridSize="10" guides="1" tooltips="1" connect="1" arrows="1" fold="1" page="1" pageScale="1" pageWidth="1700" pageHeight="1100" math="0" shadow="0">
      <root>
        <mxCell id="0" />
        <mxCell id="1" parent="0" />
        <mxCell id="l_vwWviAztrHwJhMkyFg-1" value="" style="rounded=0;whiteSpace=wrap;html=1;shadow=1;strokeWidth=2;" parent="1" vertex="1">
          <mxGeometry x="30" y="215" width="250" height="130" as="geometry" />
        </mxCell>
        <mxCell id="l_vwWviAztrHwJhMkyFg-2" value="&lt;font style=&quot;font-size: 19px;&quot;&gt;&lt;b&gt;Driver Program&lt;/b&gt;&lt;/font&gt;" style="text;html=1;align=center;verticalAlign=middle;whiteSpace=wrap;rounded=0;shadow=1;" parent="1" vertex="1">
          <mxGeometry x="30" y="215" width="250" height="40" as="geometry" />
        </mxCell>
        <mxCell id="l_vwWviAztrHwJhMkyFg-3" value="&lt;font style=&quot;font-size: 19px;&quot;&gt;Spark Context&lt;/font&gt;" style="rounded=0;whiteSpace=wrap;html=1;fillColor=#b1ddf0;strokeColor=#10739e;shadow=1;" parent="1" vertex="1">
          <mxGeometry x="77.5" y="267" width="155" height="60" as="geometry" />
        </mxCell>
        <mxCell id="l_vwWviAztrHwJhMkyFg-4" value="&lt;font style=&quot;font-size: 18px;&quot;&gt;&lt;b&gt;Cluster Manager&lt;/b&gt;&lt;/font&gt;" style="rounded=0;whiteSpace=wrap;html=1;fillColor=#6d8764;strokeColor=#3A5431;fontColor=#ffffff;shadow=1;" parent="1" vertex="1">
          <mxGeometry x="383" y="259.5" width="170" height="75" as="geometry" />
        </mxCell>
        <mxCell id="l_vwWviAztrHwJhMkyFg-5" value="" style="endArrow=classic;startArrow=classic;html=1;rounded=0;exitX=1;exitY=0.5;exitDx=0;exitDy=0;entryX=0;entryY=0.5;entryDx=0;entryDy=0;strokeWidth=2;shadow=1;" parent="1" source="l_vwWviAztrHwJhMkyFg-3" target="l_vwWviAztrHwJhMkyFg-4" edge="1">
          <mxGeometry width="50" height="50" relative="1" as="geometry">
            <mxPoint x="520" y="440" as="sourcePoint" />
            <mxPoint x="570" y="390" as="targetPoint" />
          </mxGeometry>
        </mxCell>
        <mxCell id="l_vwWviAztrHwJhMkyFg-6" value="" style="rounded=0;whiteSpace=wrap;html=1;shadow=1;strokeWidth=2;" parent="1" vertex="1">
          <mxGeometry x="720" y="81" width="300" height="200" as="geometry" />
        </mxCell>
        <mxCell id="l_vwWviAztrHwJhMkyFg-7" value="&lt;font style=&quot;font-size: 18px;&quot;&gt;&lt;b&gt;Worker Node&lt;/b&gt;&lt;/font&gt;" style="text;html=1;align=left;verticalAlign=middle;whiteSpace=wrap;rounded=0;shadow=1;" parent="1" vertex="1">
          <mxGeometry x="730" y="81" width="120" height="40" as="geometry" />
        </mxCell>
        <mxCell id="l_vwWviAztrHwJhMkyFg-8" value="" style="rounded=0;whiteSpace=wrap;html=1;fillColor=#f5f5f5;strokeColor=#666666;gradientColor=#b3b3b3;shadow=1;" parent="1" vertex="1">
          <mxGeometry x="740" y="126" width="260" height="135" as="geometry" />
        </mxCell>
        <mxCell id="l_vwWviAztrHwJhMkyFg-9" value="&lt;font style=&quot;font-size: 17px;&quot;&gt;&lt;b&gt;Executor&lt;/b&gt;&lt;/font&gt;" style="text;html=1;align=center;verticalAlign=middle;whiteSpace=wrap;rounded=0;shadow=1;" parent="1" vertex="1">
          <mxGeometry x="740" y="126" width="100" height="30" as="geometry" />
        </mxCell>
        <mxCell id="l_vwWviAztrHwJhMkyFg-10" value="&lt;font style=&quot;font-size: 17px;&quot;&gt;Cache&lt;/font&gt;" style="rounded=0;whiteSpace=wrap;html=1;fillColor=#647687;strokeColor=#314354;fontColor=#ffffff;shadow=1;" parent="1" vertex="1">
          <mxGeometry x="910" y="126" width="90" height="45" as="geometry" />
        </mxCell>
        <mxCell id="l_vwWviAztrHwJhMkyFg-11" value="&lt;font style=&quot;font-size: 16px;&quot;&gt;Task&lt;/font&gt;" style="rounded=0;whiteSpace=wrap;html=1;fillColor=#647687;strokeColor=#314354;fontColor=#ffffff;shadow=1;" parent="1" vertex="1">
          <mxGeometry x="764" y="195" width="100" height="50" as="geometry" />
        </mxCell>
        <mxCell id="l_vwWviAztrHwJhMkyFg-12" value="&lt;font style=&quot;font-size: 16px;&quot;&gt;Task&lt;/font&gt;" style="rounded=0;whiteSpace=wrap;html=1;fillColor=#647687;strokeColor=#314354;fontColor=#ffffff;shadow=1;" parent="1" vertex="1">
          <mxGeometry x="880" y="195" width="100" height="50" as="geometry" />
        </mxCell>
        <mxCell id="l_vwWviAztrHwJhMkyFg-13" value="" style="rounded=0;whiteSpace=wrap;html=1;shadow=1;strokeWidth=2;" parent="1" vertex="1">
          <mxGeometry x="720" y="311" width="300" height="200" as="geometry" />
        </mxCell>
        <mxCell id="l_vwWviAztrHwJhMkyFg-14" value="&lt;font style=&quot;font-size: 18px;&quot;&gt;&lt;b&gt;Worker Node&lt;/b&gt;&lt;/font&gt;" style="text;html=1;align=left;verticalAlign=middle;whiteSpace=wrap;rounded=0;shadow=1;" parent="1" vertex="1">
          <mxGeometry x="730" y="311" width="120" height="40" as="geometry" />
        </mxCell>
        <mxCell id="l_vwWviAztrHwJhMkyFg-15" value="" style="rounded=0;whiteSpace=wrap;html=1;fillColor=#f5f5f5;strokeColor=#666666;gradientColor=#b3b3b3;shadow=1;" parent="1" vertex="1">
          <mxGeometry x="740" y="356" width="260" height="135" as="geometry" />
        </mxCell>
        <mxCell id="l_vwWviAztrHwJhMkyFg-16" value="&lt;font style=&quot;font-size: 17px;&quot;&gt;&lt;b&gt;Executor&lt;/b&gt;&lt;/font&gt;" style="text;html=1;align=center;verticalAlign=middle;whiteSpace=wrap;rounded=0;shadow=1;" parent="1" vertex="1">
          <mxGeometry x="740" y="356" width="100" height="30" as="geometry" />
        </mxCell>
        <mxCell id="l_vwWviAztrHwJhMkyFg-17" value="&lt;font style=&quot;font-size: 17px;&quot;&gt;Cache&lt;/font&gt;" style="rounded=0;whiteSpace=wrap;html=1;fillColor=#647687;strokeColor=#314354;fontColor=#ffffff;shadow=1;" parent="1" vertex="1">
          <mxGeometry x="910" y="356" width="90" height="45" as="geometry" />
        </mxCell>
        <mxCell id="l_vwWviAztrHwJhMkyFg-18" value="&lt;font style=&quot;font-size: 16px;&quot;&gt;Task&lt;/font&gt;" style="rounded=0;whiteSpace=wrap;html=1;fillColor=#647687;strokeColor=#314354;fontColor=#ffffff;shadow=1;" parent="1" vertex="1">
          <mxGeometry x="764" y="425" width="100" height="50" as="geometry" />
        </mxCell>
        <mxCell id="l_vwWviAztrHwJhMkyFg-19" value="&lt;font style=&quot;font-size: 16px;&quot;&gt;Task&lt;/font&gt;" style="rounded=0;whiteSpace=wrap;html=1;fillColor=#647687;strokeColor=#314354;fontColor=#ffffff;shadow=1;" parent="1" vertex="1">
          <mxGeometry x="880" y="425" width="100" height="50" as="geometry" />
        </mxCell>
        <mxCell id="l_vwWviAztrHwJhMkyFg-20" value="" style="endArrow=classic;startArrow=classic;html=1;rounded=0;entryX=-0.011;entryY=0.797;entryDx=0;entryDy=0;entryPerimeter=0;exitX=1;exitY=0.25;exitDx=0;exitDy=0;strokeWidth=2;shadow=1;" parent="1" source="l_vwWviAztrHwJhMkyFg-4" target="l_vwWviAztrHwJhMkyFg-6" edge="1">
          <mxGeometry width="50" height="50" relative="1" as="geometry">
            <mxPoint x="510" y="430" as="sourcePoint" />
            <mxPoint x="560" y="380" as="targetPoint" />
          </mxGeometry>
        </mxCell>
        <mxCell id="l_vwWviAztrHwJhMkyFg-21" value="" style="endArrow=classic;startArrow=classic;html=1;rounded=0;entryX=0;entryY=0.25;entryDx=0;entryDy=0;exitX=0.984;exitY=0.86;exitDx=0;exitDy=0;exitPerimeter=0;strokeWidth=2;shadow=1;" parent="1" source="l_vwWviAztrHwJhMkyFg-4" target="l_vwWviAztrHwJhMkyFg-13" edge="1">
          <mxGeometry width="50" height="50" relative="1" as="geometry">
            <mxPoint x="510" y="430" as="sourcePoint" />
            <mxPoint x="560" y="380" as="targetPoint" />
          </mxGeometry>
        </mxCell>
        <mxCell id="l_vwWviAztrHwJhMkyFg-22" value="" style="endArrow=classic;startArrow=classic;html=1;rounded=0;exitX=0.75;exitY=1;exitDx=0;exitDy=0;entryX=0;entryY=0.5;entryDx=0;entryDy=0;edgeStyle=orthogonalEdgeStyle;curved=1;strokeWidth=2;shadow=1;" parent="1" source="l_vwWviAztrHwJhMkyFg-3" target="l_vwWviAztrHwJhMkyFg-15" edge="1">
          <mxGeometry width="50" height="50" relative="1" as="geometry">
            <mxPoint x="510" y="430" as="sourcePoint" />
            <mxPoint x="560" y="380" as="targetPoint" />
          </mxGeometry>
        </mxCell>
        <mxCell id="l_vwWviAztrHwJhMkyFg-23" value="" style="endArrow=classic;startArrow=classic;html=1;rounded=0;entryX=0;entryY=0.5;entryDx=0;entryDy=0;exitX=0.75;exitY=0;exitDx=0;exitDy=0;edgeStyle=orthogonalEdgeStyle;curved=1;strokeWidth=2;shadow=1;" parent="1" source="l_vwWviAztrHwJhMkyFg-3" target="l_vwWviAztrHwJhMkyFg-8" edge="1">
          <mxGeometry width="50" height="50" relative="1" as="geometry">
            <mxPoint x="510" y="430" as="sourcePoint" />
            <mxPoint x="560" y="380" as="targetPoint" />
          </mxGeometry>
        </mxCell>
        <mxCell id="l_vwWviAztrHwJhMkyFg-24" value="&lt;ul&gt;&lt;li&gt;&lt;span style=&quot;font-size: 13px; background-color: transparent; color: light-dark(rgb(0, 0, 0), rgb(255, 255, 255));&quot;&gt;Each Executor is a JVM instance.&lt;/span&gt;&lt;/li&gt;&lt;li&gt;&lt;span style=&quot;font-size: 13px; background-color: transparent; color: light-dark(rgb(0, 0, 0), rgb(255, 255, 255));&quot;&gt;Number of cores in each executor determines the number of tasks that can run in prallel within the exeutor&lt;/span&gt;&lt;/li&gt;&lt;li&gt;&lt;span style=&quot;background-color: transparent; color: light-dark(rgb(0, 0, 0), rgb(255, 255, 255));&quot;&gt;Research has found that 2-5 cores per executor is the right range to get optimal performance.&lt;/span&gt;&lt;/li&gt;&lt;/ul&gt;" style="text;html=1;align=left;verticalAlign=middle;whiteSpace=wrap;rounded=0;strokeColor=default;shadow=1;strokeWidth=1;" parent="1" vertex="1">
          <mxGeometry x="542" y="550" width="485" height="120" as="geometry" />
        </mxCell>
        <mxCell id="l_vwWviAztrHwJhMkyFg-25" value="&lt;font style=&quot;color: rgb(255, 255, 255);&quot;&gt;https://jeromerajan.com/2021/07/29/spark-architecture-notes-faq/&lt;/font&gt;" style="text;html=1;align=center;verticalAlign=middle;whiteSpace=wrap;rounded=0;" parent="1" vertex="1">
          <mxGeometry x="700" y="920" width="380" height="30" as="geometry" />
        </mxCell>
        <mxCell id="l_vwWviAztrHwJhMkyFg-27" value="&lt;ul&gt;&lt;li&gt;Every Spark application will have at least one job.&lt;/li&gt;&lt;li&gt;Each job will have at least one stage.&lt;/li&gt;&lt;li&gt;Every stage will have at least one task.&lt;/li&gt;&lt;li&gt;Every task in a stage executes the same set of instructions.&lt;/li&gt;&lt;li&gt;&lt;font style=&quot;color: rgb(204, 0, 102);&quot;&gt;&lt;b style=&quot;&quot;&gt;A Job is created when there is an action.&lt;/b&gt;&lt;/font&gt; If 2 actions, then 2 jobs.&lt;/li&gt;&lt;li&gt;&lt;font style=&quot;color: rgb(204, 0, 102);&quot;&gt;&lt;font style=&quot;color: rgb(255, 0, 128);&quot;&gt;&lt;b style=&quot;&quot;&gt;A stage is created every time Spark has to perform a shuffle&lt;/b&gt;&lt;/font&gt;.&lt;/font&gt;&lt;/li&gt;&lt;li&gt;&lt;font style=&quot;color: rgb(204, 0, 102);&quot;&gt;&lt;b&gt;A task corresponds to the partitions being processed in a stage.&lt;/b&gt;&lt;/font&gt; If a stage is processing 5 partitions, there will be 5 tasks.&lt;/li&gt;&lt;/ul&gt;" style="text;html=1;align=left;verticalAlign=middle;whiteSpace=wrap;rounded=0;strokeColor=default;shadow=1;" parent="1" vertex="1">
          <mxGeometry x="18" y="550" width="472" height="120" as="geometry" />
        </mxCell>
        <mxCell id="l_vwWviAztrHwJhMkyFg-28" value="" style="rounded=0;whiteSpace=wrap;html=1;" parent="1" vertex="1">
          <mxGeometry x="242" y="741" width="450" height="100" as="geometry" />
        </mxCell>
        <mxCell id="l_vwWviAztrHwJhMkyFg-29" value="&lt;span style=&quot;font-size: 12px;&quot;&gt;Job&lt;/span&gt;&lt;br&gt;&lt;div style=&quot;font-size: 12px;&quot;&gt;&lt;font style=&quot;font-size: 8px;&quot;&gt;(action)&lt;/font&gt;&lt;/div&gt;" style="text;html=1;align=center;verticalAlign=middle;whiteSpace=wrap;rounded=0;fontStyle=1;fontSize=14;fillColor=#cce5ff;strokeColor=#36393d;" parent="1" vertex="1">
          <mxGeometry x="242" y="741" width="450" height="30" as="geometry" />
        </mxCell>
        <mxCell id="l_vwWviAztrHwJhMkyFg-30" value="" style="rounded=0;whiteSpace=wrap;html=1;" parent="1" vertex="1">
          <mxGeometry x="242" y="771" width="150" height="70" as="geometry" />
        </mxCell>
        <mxCell id="l_vwWviAztrHwJhMkyFg-32" value="Stage&lt;div&gt;&lt;font style=&quot;font-size: 8px;&quot;&gt;(shuffle)&lt;/font&gt;&lt;/div&gt;" style="text;html=1;align=center;verticalAlign=middle;whiteSpace=wrap;rounded=0;fontStyle=1;fillColor=#bac8d3;strokeColor=#23445d;" parent="1" vertex="1">
          <mxGeometry x="242" y="771" width="150" height="30" as="geometry" />
        </mxCell>
        <mxCell id="l_vwWviAztrHwJhMkyFg-33" value="Task" style="rounded=0;whiteSpace=wrap;html=1;fillColor=#647687;fontColor=#ffffff;strokeColor=#314354;" parent="1" vertex="1">
          <mxGeometry x="242" y="801" width="50" height="40" as="geometry" />
        </mxCell>
        <mxCell id="l_vwWviAztrHwJhMkyFg-34" value="Task" style="rounded=0;whiteSpace=wrap;html=1;fillColor=#647687;fontColor=#ffffff;strokeColor=#314354;" parent="1" vertex="1">
          <mxGeometry x="292" y="801" width="50" height="40" as="geometry" />
        </mxCell>
        <mxCell id="l_vwWviAztrHwJhMkyFg-36" value="Task" style="rounded=0;whiteSpace=wrap;html=1;fillColor=#647687;strokeColor=#314354;fontColor=#FFFFFF;" parent="1" vertex="1">
          <mxGeometry x="342" y="801" width="50" height="40" as="geometry" />
        </mxCell>
        <mxCell id="l_vwWviAztrHwJhMkyFg-37" value="" style="rounded=0;whiteSpace=wrap;html=1;" parent="1" vertex="1">
          <mxGeometry x="392" y="771" width="150" height="70" as="geometry" />
        </mxCell>
        <mxCell id="l_vwWviAztrHwJhMkyFg-38" value="Stage&lt;div&gt;&lt;font style=&quot;font-size: 8px;&quot;&gt;(shuffle)&lt;/font&gt;&lt;/div&gt;" style="text;html=1;align=center;verticalAlign=middle;whiteSpace=wrap;rounded=0;fontStyle=1;fillColor=#bac8d3;strokeColor=#23445d;" parent="1" vertex="1">
          <mxGeometry x="392" y="771" width="150" height="30" as="geometry" />
        </mxCell>
        <mxCell id="l_vwWviAztrHwJhMkyFg-39" value="Task" style="rounded=0;whiteSpace=wrap;html=1;fillColor=#647687;fontColor=#ffffff;strokeColor=#314354;" parent="1" vertex="1">
          <mxGeometry x="392" y="801" width="50" height="40" as="geometry" />
        </mxCell>
        <mxCell id="l_vwWviAztrHwJhMkyFg-40" value="Task" style="rounded=0;whiteSpace=wrap;html=1;fillColor=#647687;fontColor=#ffffff;strokeColor=#314354;" parent="1" vertex="1">
          <mxGeometry x="442" y="801" width="50" height="40" as="geometry" />
        </mxCell>
        <mxCell id="l_vwWviAztrHwJhMkyFg-41" value="Task" style="rounded=0;whiteSpace=wrap;html=1;fillColor=#647687;fontColor=#ffffff;strokeColor=#314354;" parent="1" vertex="1">
          <mxGeometry x="492" y="801" width="50" height="40" as="geometry" />
        </mxCell>
        <mxCell id="l_vwWviAztrHwJhMkyFg-47" value="" style="rounded=0;whiteSpace=wrap;html=1;" parent="1" vertex="1">
          <mxGeometry x="542" y="771" width="150" height="70" as="geometry" />
        </mxCell>
        <mxCell id="l_vwWviAztrHwJhMkyFg-48" value="Stage&lt;div&gt;&lt;font style=&quot;font-size: 8px;&quot;&gt;(shuffle)&lt;/font&gt;&lt;/div&gt;" style="text;html=1;align=center;verticalAlign=middle;whiteSpace=wrap;rounded=0;fontStyle=1;fillColor=#bac8d3;strokeColor=#23445d;" parent="1" vertex="1">
          <mxGeometry x="542" y="771" width="150" height="30" as="geometry" />
        </mxCell>
        <mxCell id="l_vwWviAztrHwJhMkyFg-49" value="Task" style="rounded=0;whiteSpace=wrap;html=1;fillColor=#647687;fontColor=#ffffff;strokeColor=#314354;" parent="1" vertex="1">
          <mxGeometry x="542" y="801" width="50" height="40" as="geometry" />
        </mxCell>
        <mxCell id="l_vwWviAztrHwJhMkyFg-50" value="Task" style="rounded=0;whiteSpace=wrap;html=1;fillColor=#647687;fontColor=#ffffff;strokeColor=#314354;" parent="1" vertex="1">
          <mxGeometry x="592" y="801" width="50" height="40" as="geometry" />
        </mxCell>
        <mxCell id="l_vwWviAztrHwJhMkyFg-51" value="Task" style="rounded=0;whiteSpace=wrap;html=1;fillColor=#647687;fontColor=#ffffff;strokeColor=#314354;" parent="1" vertex="1">
          <mxGeometry x="642" y="801" width="50" height="40" as="geometry" />
        </mxCell>
      </root>
    </mxGraphModel>
  </diagram>
</mxfile>
